<?xml version="1.0" encoding="UTF-8"?>
<svg id="Livello_2" data-name="Livello 2" xmlns="http://www.w3.org/2000/svg" viewBox="0 0 141.47 275">
  <defs>
    <style>
      .cls-1 {
        fill: #2c4832;
      }

      .cls-2 {
        fill: #933235;
      }

      .cls-3 {
        fill: #fff;
      }

      .cls-4 {
        fill: #c23a46;
      }

      .cls-5 {
        fill: #315e3b;
      }
    </style>
  </defs>
  <g id="logo">
    <g>
      <path class="cls-2" d="M123,205.75c-3.94,3.99-8.47,7.5-13.37,10.25-13.36,7.48-28.14,6.81-33.51,24.07-.92,2.97-1.26,6.12-2.23,9.15-6.67,20.7-31.53,29.03-51.38,24.64-.09-.58.84-.38,1.21-.36,18.89,1.13,47.59-8.99,41.86-32.89-4.12-17.18-20.16-17.17-32.96-24.28-3.81-2.11-8.5-5.56-11.58-8.15,12.41,5.68,35.95,9.67,49.86,8.44,19.48-1.72,45.65-12.59,52.89-48.96,4.93-24.79-10.91-44.69-21.55-54.68,37.1,16.19,50.54,62.65,20.76,92.76Z"/>
      <path class="cls-4" d="M124.91,167.84c-7.24,36.38-34.65,47.76-54.13,49.48-13.91,1.23-36.07-2.37-48.49-8.05-5.99-5.03-10.61-10.86-13.92-17.14-14.66-27.88-3.29-64.61,30.79-79,17.47-7.38,44.72-7.51,62.29-.46.61.24,1.22.5,1.82.77,10.64,9.99,26.56,29.61,21.63,54.4Z"/>
      <path class="cls-3" d="M60.43,117.67c-.13-.63-.68-.64-1.19-.7-7.29-.81-16.93,2.5-23.17,6.16-14.13,8.28-24.83,25.77-22.52,42.47.5.08.47-.6.58-.96.96-3,1.5-6.09,2.6-9.12,7.27-20.05,23.06-33.03,43.7-37.85Z"/>
      <path class="cls-3" d="M70.44,148.7c-4.48-8.83-16.33-11.57-23.96-4.81-7.63,6.75-5.94,17.72.52,24.63l23.91,23.6c4.02-3.8,7.81-7.84,11.76-11.71,8.24-8.07,22.69-18.77,16-32.19-5.69-11.41-21.61-10.39-27.51.25l-.71.22Z"/>
      <path class="cls-1" d="M51.52,82.66s6.73,8.63,8.48,13.17-14.31-7.04-14.31-7.04l5.83-6.13Z"/>
      <path class="cls-1" d="M69.05,104.22l-2.72-.03c-1.09-5.54-3.5-10.79-6.18-15.71-.79-1.46-4.53-6.78-4.73-7.67-.11-.53.98-2.14,1.2-2.98.99-3.61.62-7.63-.44-10.82,5.7,14.87,11.6,30.1,12.87,37.22Z"/>
      <path class="cls-1" d="M85.1,77.66c.34,1.06,1.42,1.99,1.06,3.12-4.81,7.19-9.07,14.87-10.93,23.41l-2.72.03v-40c3.56-.81,7-3.99,9.3-6.73.84-1,3.41-3.82,1.39-4.82-2.21-1.11-4.93,3.72-6.55,5.18-1.1,1-2.67,2.29-4.14,2.58v-16.05c3.24-6.5,11.26-24.75,11.26-24.75,0,0,7.08-5.26,7.62-8,3.37,6.47,3.61,14.76.43,22.59,2.89-.05,4.61,3.1,4.84,5.68,1.21,13.28-15.69,24.99-11.55,37.76Z"/>
      <path class="cls-5" d="M91.38,11.63h0c-.54,2.74-1.63,6.96-3.48,9.04-2.44,2.73-12.16,17.22-15.4,23.72v-25.16c0-1.12-3.45-1.12-3.45,0v41.2c-1.07-.31-2.26-1.19-3.11-1.89-1.13-.93-5.08-5.66-5.52-5.86-1.3-.6-2.69-.1-2.76,1.41-.08,1.81,6.65,7.74,8.39,8.82.84.53,2.03,1.05,3,1.31v40l-12.87-36.53c-2.49-7.46-8.79-14.14-10.62-21.87-.97-4.1-1.19-10.97,4.19-11.6C42.35,16.32,54.03-2.06,73.96.19c8.38.94,14.27,5.39,17.43,11.44Z"/>
      <path class="cls-1" d="M140.95,51.13c-1.67,7.13-7.8,13.04-13.52,17.17-1.23.89-7.54,4.57-7.87,5.24-.47.94.2,1.86.16,2.88-.43,10.28-14.8,10.8-21.7,12.81-7.48,2.18-13.46,7.92-15.9,15.3l-3.41.04c1.62-8.03,5.95-15.14,10.35-21.91,3.57-.21,9.85.94,13.13.04,1.88-.52.58-3.3-.2-3.3h-10.52l11.55-13.08c.48-.05.97-.1,1.47-.16,2.6.12,5.26.33,7.84.13,2.11-.17,5.87-.18,3.74-4.71,11.22-3.39,21.41-11.37,23.7-25.47,1.69,1.85,2.22,10.65,1.19,15.02Z"/>
      <path class="cls-1" d="M103.2,66.11c.42.01.85.03,1.28.05-.49.06-.98.11-1.47.16l.19-.21Z"/>
      <path class="cls-1" d="M98.29,66.11c-2.22,2.53-4.89,5.63-7,8.11-.66.78-1.54,1.8-1.9,2.76-1.37.96-1.42-4.44-1.38-5.01.13-1.84,1.1-4.74,1.79-6.46,1.83.09,4.84.75,8.49.6Z"/>
      <path class="cls-5" d="M140.89,39.23c-2.28,14.1-12.95,21.07-24.18,24.46-.21-.36-.62-.75-1.29-1.19-2.77.02-5.49.54-8.28.33-.51-.04-1,.27-.85-.51l16.36-17.09c1.41-4.12-1.56-3.63-3.95-1.2-6.97,7.09-14.15,14.91-20.92,22.64-3.65.16-6.65.07-8.48-.02,3.3-8.2,11.54-15.54,10.78-27.43-.08-1.29-.92-2.26-.43-3.52.31-.79,1.86-2.65,2.49-3.39,12.73-14.9,34.4-8.94,38.75,6.91Z"/>
      <path class="cls-5" d="M62.85,104.56l-3.05-.05c-2.1-5.33-5.71-10.36-10.85-13.11-9.25-4.94-28.6-2.65-26.6-17.86-7.02-4.41-14.23-8.6-18.61-15.89-14.66-24.43,17.26-46.87,35.84-25.15.63.73,2.6,3.17,2.58,3.92-.02.81-.61,1.83-.68,2.81-.37,5.33,1.01,9.59,3.26,14.32,3.52,7.39,10.8,14.75,8.45,23.44l-.69-.17-31.62-34.6c-1.73-.34-2.93.62-2.34,2.35l16.73,17.77c.14.78-.34.48-.86.51-2.15.16-7.21-.75-8.57-.29-1.31.44-1.16,2.88.36,3.32.56.16,2.64.36,3.38.41,2.92.21,5.87-.19,8.78-.17l7.43,8.1,3.96,5.18c-2.6.48-7.93-.64-10.17,0-1.24.36-1.54,2.9.07,3.38l11.88-.12c-2.31,2.4-6.21,7.01-2.58,7.42,3.8.43,8.92,4.09,11.06,5.74,1.24,2.8,2.24,5.7,2.85,8.73Z"/>
    </g>
  </g>
</svg>