<svg xmlns="http://www.w3.org/2000/svg" version="1.1" xmlns:xlink="http://www.w3.org/1999/xlink" width="1024" height="1024"><svg id="SvgjsSvg1043" data-name="Livello 2" xmlns="http://www.w3.org/2000/svg" viewBox="0 0 1024 1024">
  <defs>
    <style>
      .cls-1 {
        fill: #eae4db;
      }

      .cls-2 {
        fill: #2c4832;
      }

      .cls-3 {
        fill: #933235;
      }

      .cls-4 {
        fill: #fff;
      }

      .cls-5 {
        fill: #c23a46;
      }

      .cls-6 {
        fill: #315e3b;
      }
    </style>
  </defs>
  <g id="SvgjsG1042" data-name="Livello 1">
    <circle class="cls-1" cx="512" cy="512" r="512"></circle>
    <g>
      <path class="cls-3" d="M690.88,745.28c-13.46,13.62-28.93,25.65-45.71,35.04-45.67,25.58-96.2,23.29-114.54,82.29-3.16,10.15-4.29,20.93-7.63,31.27-22.79,70.76-107.77,99.22-175.63,84.24-.32-1.97,2.86-1.3,4.15-1.21,64.55,3.87,162.68-30.73,143.07-112.42-14.08-58.73-68.9-58.7-112.66-82.99-13.01-7.21-29.04-19.02-39.57-27.87,42.43,19.41,122.88,33.06,170.44,28.85,66.59-5.89,156.03-43.02,180.78-167.36,16.87-84.73-37.29-152.75-73.68-186.89,126.81,55.34,172.74,214.16,70.97,317.06Z"></path>
      <path class="cls-5" d="M697.42,615.71c-24.75,124.34-118.45,163.24-185.04,169.13-47.56,4.21-123.31-8.11-165.74-27.52-20.46-17.18-36.27-37.13-47.57-58.6-50.1-95.3-11.24-220.84,105.26-270.02,59.73-25.22,152.85-25.67,212.93-1.56,2.1.84,4.17,1.71,6.22,2.62,36.38,34.14,90.8,101.22,73.93,185.95Z"></path>
      <path class="cls-4" d="M477.02,444.21c-.45-2.14-2.32-2.19-4.08-2.39-24.9-2.78-57.87,8.55-79.21,21.06-48.3,28.3-84.87,88.09-76.98,145.17,1.69.28,1.6-2.05,1.99-3.28,3.29-10.24,5.14-20.82,8.9-31.19,24.85-68.52,78.82-112.9,149.39-129.37Z"></path>
      <path class="cls-4" d="M511.23,550.28c-15.31-30.19-55.82-39.54-81.9-16.46-26.08,23.09-20.29,60.58,1.76,84.2l81.72,80.68c13.73-13,26.7-26.79,40.2-40.02,28.16-27.57,77.57-64.15,54.69-110.02-19.45-39-73.86-35.51-94.05.87l-2.43.74Z"></path>
      <path class="cls-2" d="M446.56,324.55s23.01,29.51,28.98,45.01-48.9-24.06-48.9-24.06l19.92-20.96Z"></path>
      <path class="cls-2" d="M506.49,398.25l-9.31-.12c-3.72-18.93-11.97-36.87-21.13-53.71-2.71-5-15.5-23.16-16.17-26.21-.39-1.83,3.34-7.33,4.11-10.2,3.37-12.35,2.13-26.09-1.5-36.98,19.47,50.82,39.66,102.89,44,127.22Z"></path>
      <path class="cls-2" d="M561.33,307.46c1.17,3.62,4.87,6.79,3.62,10.65-16.43,24.56-31,50.83-37.36,80.02l-9.31.12v-136.72c12.18-2.78,23.94-13.62,31.79-23.02,2.88-3.43,11.64-13.05,4.75-16.48-7.55-3.78-16.85,12.71-22.38,17.7-3.77,3.42-9.13,7.83-14.16,8.83v-54.85c11.07-22.22,38.51-84.61,38.51-84.61,0,0,24.19-17.97,26.04-27.34,11.52,22.1,12.34,50.46,1.46,77.22,9.87-.17,15.75,10.58,16.55,19.41,4.15,45.39-53.64,85.43-39.5,129.07Z"></path>
      <path class="cls-6" d="M582.82,81.75h0c-1.85,9.38-5.56,23.8-11.89,30.89-8.34,9.33-41.58,58.86-52.65,81.08v-85.99c0-3.84-11.79-3.84-11.79,0v140.84c-3.64-1.06-7.71-4.08-10.62-6.47-3.88-3.18-17.35-19.34-18.86-20.02-4.46-2.05-9.19-.34-9.43,4.81-.27,6.19,22.74,26.45,28.66,30.16,2.88,1.82,6.93,3.58,10.24,4.49v136.72l-44-124.86c-8.5-25.49-30.05-48.32-36.31-74.75-3.31-14.03-4.08-37.49,14.31-39.66-25.27-61.21,14.64-124.03,82.76-116.34,28.65,3.23,48.78,18.42,59.57,39.11Z"></path>
      <path class="cls-2" d="M752.24,216.76c-5.72,24.36-26.67,44.59-46.2,58.7-4.22,3.05-25.78,15.62-26.91,17.9-1.6,3.23.7,6.34.55,9.85-1.46,35.13-50.59,36.91-74.18,43.79-25.58,7.44-46.01,27.08-54.36,52.3l-11.66.13c5.55-27.45,20.35-51.75,35.38-74.89,12.21-.71,33.66,3.23,44.87.13,6.41-1.77,1.99-11.27-.7-11.27h-35.95l39.48-44.7c1.65-.17,3.32-.34,5.01-.54,8.88.42,17.99,1.14,26.8.45,7.21-.58,20.05-.62,12.78-16.1,38.36-11.59,73.19-38.87,81-87.07,5.77,6.32,7.57,36.39,4.07,51.33Z"></path>
      <path class="cls-2" d="M623.22,267.97c1.45.05,2.91.11,4.37.18-1.69.2-3.36.38-5.01.54l.64-.72Z"></path>
      <path class="cls-2" d="M606.42,267.97c-7.58,8.65-16.73,19.24-23.93,27.72-2.26,2.68-5.28,6.16-6.48,9.44-4.68,3.26-4.87-15.17-4.73-17.13.44-6.29,3.76-16.21,6.12-22.07,6.26.32,16.53,2.57,29.02,2.04Z"></path>
      <path class="cls-6" d="M752.05,176.11c-7.8,48.21-44.28,72.04-82.64,83.62-.72-1.21-2.13-2.57-4.42-4.05-9.46.06-18.75,1.84-28.29,1.14-1.74-.13-3.41.92-2.91-1.76l55.91-58.41c4.83-14.07-5.33-12.42-13.52-4.09-23.83,24.22-48.36,50.95-71.49,77.38-12.49.53-22.74.24-28.99-.08,11.28-28.02,39.45-53.11,36.86-93.76-.28-4.42-3.16-7.72-1.46-12.02,1.07-2.7,6.35-9.06,8.51-11.6,43.51-50.92,117.58-30.56,132.45,23.63Z"></path>
      <path class="cls-6" d="M485.27,399.42l-10.42-.18c-7.18-18.21-19.53-35.43-37.09-44.82-31.61-16.89-97.75-9.06-90.91-61.05-24-15.07-48.65-29.39-63.62-54.32-50.13-83.5,58.99-160.2,122.49-85.96,2.16,2.51,8.87,10.83,8.8,13.4-.08,2.76-2.1,6.27-2.32,9.61-1.25,18.21,3.47,32.79,11.15,48.94,12.03,25.27,36.91,50.42,28.9,80.11l-2.36-.57-108.09-118.29c-5.92-1.18-10.01,2.12-8.01,8.04l57.17,60.73c.49,2.68-1.17,1.63-2.92,1.76-7.35.54-24.63-2.56-29.29-.98-4.48,1.51-3.95,9.84,1.24,11.34,1.9.55,9.03,1.23,11.55,1.41,9.98.73,20.07-.65,30.01-.58l25.39,27.69,13.54,17.69c-8.9,1.64-27.12-2.2-34.77,0-4.25,1.23-5.26,9.9.22,11.56l40.62-.4c-7.88,8.19-21.24,23.96-8.82,25.38,12.99,1.49,30.48,13.99,37.8,19.64,4.25,9.58,7.67,19.49,9.74,29.85Z"></path>
    </g>
  </g>
</svg><style>@media (prefers-color-scheme: light) { :root { filter: none; } }
@media (prefers-color-scheme: dark) { :root { filter: none; } }
</style></svg>